<mxfile host="app.diagrams.net" agent="Mozilla/5.0 (Windows NT 10.0; Win64; x64; rv:137.0) Gecko/20100101 Firefox/137.0" version="26.2.14">
  <diagram name="1 oldal" id="kolepFCdxbACid74wi64">
    <mxGraphModel dx="1819" dy="536" grid="1" gridSize="10" guides="1" tooltips="1" connect="1" arrows="1" fold="1" page="1" pageScale="1" pageWidth="827" pageHeight="1169" math="0" shadow="0">
      <root>
        <mxCell id="0" />
        <mxCell id="1" parent="0" />
        <mxCell id="3PrR_tHGrMDQuROmw7DV-21" style="rounded=0;orthogonalLoop=1;jettySize=auto;html=1;exitX=0.5;exitY=1;exitDx=0;exitDy=0;entryX=0.5;entryY=0;entryDx=0;entryDy=0;endArrow=none;startFill=0;" edge="1" parent="1" source="3PrR_tHGrMDQuROmw7DV-1" target="3PrR_tHGrMDQuROmw7DV-10">
          <mxGeometry relative="1" as="geometry" />
        </mxCell>
        <mxCell id="3PrR_tHGrMDQuROmw7DV-22" style="rounded=0;orthogonalLoop=1;jettySize=auto;html=1;exitX=0.5;exitY=1;exitDx=0;exitDy=0;entryX=0.5;entryY=0;entryDx=0;entryDy=0;endArrow=none;startFill=0;" edge="1" parent="1" source="3PrR_tHGrMDQuROmw7DV-1" target="3PrR_tHGrMDQuROmw7DV-9">
          <mxGeometry relative="1" as="geometry" />
        </mxCell>
        <mxCell id="3PrR_tHGrMDQuROmw7DV-23" style="rounded=0;orthogonalLoop=1;jettySize=auto;html=1;exitX=0.5;exitY=1;exitDx=0;exitDy=0;entryX=0.5;entryY=0;entryDx=0;entryDy=0;endArrow=none;startFill=0;" edge="1" parent="1" source="3PrR_tHGrMDQuROmw7DV-1" target="3PrR_tHGrMDQuROmw7DV-11">
          <mxGeometry relative="1" as="geometry" />
        </mxCell>
        <mxCell id="3PrR_tHGrMDQuROmw7DV-24" style="rounded=0;orthogonalLoop=1;jettySize=auto;html=1;exitX=0.5;exitY=1;exitDx=0;exitDy=0;entryX=0.5;entryY=0;entryDx=0;entryDy=0;endArrow=none;startFill=0;" edge="1" parent="1" source="3PrR_tHGrMDQuROmw7DV-1" target="3PrR_tHGrMDQuROmw7DV-13">
          <mxGeometry relative="1" as="geometry" />
        </mxCell>
        <mxCell id="3PrR_tHGrMDQuROmw7DV-25" style="rounded=0;orthogonalLoop=1;jettySize=auto;html=1;exitX=0.5;exitY=1;exitDx=0;exitDy=0;entryX=0.5;entryY=0;entryDx=0;entryDy=0;endArrow=none;startFill=0;" edge="1" parent="1" source="3PrR_tHGrMDQuROmw7DV-1" target="3PrR_tHGrMDQuROmw7DV-12">
          <mxGeometry relative="1" as="geometry" />
        </mxCell>
        <mxCell id="3PrR_tHGrMDQuROmw7DV-26" style="rounded=0;orthogonalLoop=1;jettySize=auto;html=1;exitX=0.5;exitY=1;exitDx=0;exitDy=0;entryX=0.5;entryY=0;entryDx=0;entryDy=0;endArrow=none;startFill=0;" edge="1" parent="1" source="3PrR_tHGrMDQuROmw7DV-1" target="3PrR_tHGrMDQuROmw7DV-14">
          <mxGeometry relative="1" as="geometry" />
        </mxCell>
        <mxCell id="3PrR_tHGrMDQuROmw7DV-1" value="Auto" style="rounded=0;whiteSpace=wrap;html=1;fontStyle=1" vertex="1" parent="1">
          <mxGeometry x="-260" y="370" width="120" height="60" as="geometry" />
        </mxCell>
        <mxCell id="3PrR_tHGrMDQuROmw7DV-18" style="rounded=0;orthogonalLoop=1;jettySize=auto;html=1;exitX=0.5;exitY=1;exitDx=0;exitDy=0;entryX=0.5;entryY=0;entryDx=0;entryDy=0;endArrow=none;startFill=0;" edge="1" parent="1" source="3PrR_tHGrMDQuROmw7DV-2" target="3PrR_tHGrMDQuROmw7DV-17">
          <mxGeometry relative="1" as="geometry" />
        </mxCell>
        <mxCell id="3PrR_tHGrMDQuROmw7DV-19" style="rounded=0;orthogonalLoop=1;jettySize=auto;html=1;exitX=0.5;exitY=1;exitDx=0;exitDy=0;entryX=0.5;entryY=0;entryDx=0;entryDy=0;endArrow=none;startFill=0;" edge="1" parent="1" source="3PrR_tHGrMDQuROmw7DV-2" target="3PrR_tHGrMDQuROmw7DV-15">
          <mxGeometry relative="1" as="geometry" />
        </mxCell>
        <mxCell id="3PrR_tHGrMDQuROmw7DV-20" style="rounded=0;orthogonalLoop=1;jettySize=auto;html=1;exitX=0.5;exitY=1;exitDx=0;exitDy=0;entryX=0.5;entryY=0;entryDx=0;entryDy=0;endArrow=none;startFill=0;" edge="1" parent="1" source="3PrR_tHGrMDQuROmw7DV-2" target="3PrR_tHGrMDQuROmw7DV-16">
          <mxGeometry relative="1" as="geometry" />
        </mxCell>
        <mxCell id="3PrR_tHGrMDQuROmw7DV-2" value="Tulajdonos" style="rounded=0;whiteSpace=wrap;html=1;fontStyle=1" vertex="1" parent="1">
          <mxGeometry x="220" y="370" width="120" height="60" as="geometry" />
        </mxCell>
        <mxCell id="3PrR_tHGrMDQuROmw7DV-4" style="edgeStyle=orthogonalEdgeStyle;rounded=0;orthogonalLoop=1;jettySize=auto;html=1;exitX=1;exitY=0.5;exitDx=0;exitDy=0;entryX=0;entryY=0.5;entryDx=0;entryDy=0;" edge="1" parent="1" source="3PrR_tHGrMDQuROmw7DV-3" target="3PrR_tHGrMDQuROmw7DV-2">
          <mxGeometry relative="1" as="geometry" />
        </mxCell>
        <mxCell id="3PrR_tHGrMDQuROmw7DV-5" style="edgeStyle=orthogonalEdgeStyle;rounded=0;orthogonalLoop=1;jettySize=auto;html=1;exitX=0;exitY=0.5;exitDx=0;exitDy=0;entryX=1;entryY=0.5;entryDx=0;entryDy=0;" edge="1" parent="1" source="3PrR_tHGrMDQuROmw7DV-3" target="3PrR_tHGrMDQuROmw7DV-1">
          <mxGeometry relative="1" as="geometry" />
        </mxCell>
        <mxCell id="3PrR_tHGrMDQuROmw7DV-6" style="edgeStyle=orthogonalEdgeStyle;rounded=0;orthogonalLoop=1;jettySize=auto;html=1;exitX=0;exitY=0.5;exitDx=0;exitDy=0;" edge="1" parent="1" source="3PrR_tHGrMDQuROmw7DV-3">
          <mxGeometry relative="1" as="geometry">
            <mxPoint x="-130" y="400" as="targetPoint" />
          </mxGeometry>
        </mxCell>
        <mxCell id="3PrR_tHGrMDQuROmw7DV-3" value="A-T" style="rhombus;whiteSpace=wrap;html=1;fontStyle=1" vertex="1" parent="1">
          <mxGeometry y="360" width="80" height="80" as="geometry" />
        </mxCell>
        <mxCell id="3PrR_tHGrMDQuROmw7DV-9" value="Kor" style="ellipse;whiteSpace=wrap;html=1;" vertex="1" parent="1">
          <mxGeometry x="-110" y="490" width="90" height="50" as="geometry" />
        </mxCell>
        <mxCell id="3PrR_tHGrMDQuROmw7DV-10" value="Ar" style="ellipse;whiteSpace=wrap;html=1;" vertex="1" parent="1">
          <mxGeometry x="-10" y="490" width="90" height="50" as="geometry" />
        </mxCell>
        <mxCell id="3PrR_tHGrMDQuROmw7DV-11" value="Tulaj" style="ellipse;whiteSpace=wrap;html=1;" vertex="1" parent="1">
          <mxGeometry x="-210" y="490" width="90" height="50" as="geometry" />
        </mxCell>
        <mxCell id="3PrR_tHGrMDQuROmw7DV-12" value="Szin" style="ellipse;whiteSpace=wrap;html=1;" vertex="1" parent="1">
          <mxGeometry x="-410" y="490" width="90" height="50" as="geometry" />
        </mxCell>
        <mxCell id="3PrR_tHGrMDQuROmw7DV-13" value="Tipus" style="ellipse;whiteSpace=wrap;html=1;" vertex="1" parent="1">
          <mxGeometry x="-310" y="490" width="90" height="50" as="geometry" />
        </mxCell>
        <mxCell id="3PrR_tHGrMDQuROmw7DV-14" value="Rendszam" style="ellipse;whiteSpace=wrap;html=1;" vertex="1" parent="1">
          <mxGeometry x="-510" y="490" width="90" height="50" as="geometry" />
        </mxCell>
        <mxCell id="3PrR_tHGrMDQuROmw7DV-15" value="Nev" style="ellipse;whiteSpace=wrap;html=1;" vertex="1" parent="1">
          <mxGeometry x="235" y="490" width="90" height="50" as="geometry" />
        </mxCell>
        <mxCell id="3PrR_tHGrMDQuROmw7DV-16" value="Varos" style="ellipse;whiteSpace=wrap;html=1;" vertex="1" parent="1">
          <mxGeometry x="335" y="490" width="90" height="50" as="geometry" />
        </mxCell>
        <mxCell id="3PrR_tHGrMDQuROmw7DV-17" value="Tkod" style="ellipse;whiteSpace=wrap;html=1;" vertex="1" parent="1">
          <mxGeometry x="135" y="490" width="90" height="50" as="geometry" />
        </mxCell>
      </root>
    </mxGraphModel>
  </diagram>
</mxfile>
